<?xml version="1.0" standalone="no"?>
<!DOCTYPE svg PUBLIC "-//W3C//DTD SVG 20010904//EN"
 "http://www.w3.org/TR/2001/REC-SVG-20010904/DTD/svg10.dtd">
<svg version="1.0" xmlns="http://www.w3.org/2000/svg"
 width="128.000000pt" height="128.000000pt" viewBox="0 0 128.000000 128.000000"
 preserveAspectRatio="xMidYMid meet">

<g transform="translate(0.000000,128.000000) scale(0.100000,-0.100000)"
fill="#0189FF" stroke="none">
<path d="M555 1252 c-46 -28 -101 -95 -135 -161 -16 -33 -30 -65 -30 -69 0
-10 128 -32 185 -32 l35 0 0 140 c0 152 -1 155 -55 122z"/>
<path d="M670 1130 l0 -140 35 0 c57 0 185 22 185 32 0 17 -59 125 -87 158
-32 39 -100 90 -120 90 -10 0 -13 -29 -13 -140z"/>
<path d="M396 1225 c-65 -26 -149 -81 -185 -119 l-22 -23 48 -20 c92 -39 88
-40 118 24 14 31 44 81 66 110 22 29 38 53 37 53 -2 0 -30 -11 -62 -25z"/>
<path d="M859 1197 c22 -29 52 -78 66 -110 15 -31 28 -57 30 -57 10 0 121 43
128 50 19 17 -121 116 -213 151 l-51 19 40 -53z"/>
<path d="M113 992 c-56 -83 -103 -214 -103 -289 l0 -33 129 0 128 0 7 77 c4
42 14 110 22 150 9 41 14 76 12 77 -1 1 -37 15 -78 32 -41 16 -77 30 -80 31
-3 2 -19 -18 -37 -45z"/>
<path d="M1050 1007 c-41 -17 -77 -32 -78 -33 -2 -2 3 -36 12 -77 8 -40 18
-108 22 -150 l7 -77 128 0 129 0 0 33 c0 41 -25 137 -51 196 -21 48 -80 142
-89 140 -3 -1 -39 -15 -80 -32z"/>
<path d="M367 953 c-11 -18 -37 -178 -37 -229 l0 -54 140 0 140 0 0 129 0 130
-47 6 c-27 3 -68 8 -93 11 -25 3 -57 7 -72 10 -14 3 -28 1 -31 -3z"/>
<path d="M820 949 c-36 -5 -84 -12 -107 -15 l-43 -5 0 -130 0 -129 140 0 140
0 -1 63 c-1 89 -30 222 -49 223 -8 1 -44 -2 -80 -7z"/>
<path d="M10 571 c0 -58 44 -187 89 -261 21 -36 43 -65 47 -65 5 0 44 13 87
29 74 28 78 31 73 55 -13 57 -36 218 -36 249 l0 32 -130 0 -130 0 0 -39z"/>
<path d="M331 548 c0 -35 8 -99 17 -143 19 -91 5 -83 142 -71 133 13 120 -3
120 146 l0 130 -140 0 -140 0 1 -62z"/>
<path d="M670 480 c0 -149 -13 -133 120 -146 137 -12 123 -20 142 71 9 44 17
108 17 143 l1 62 -140 0 -140 0 0 -130z"/>
<path d="M1010 578 c0 -31 -23 -192 -36 -249 -5 -24 -1 -27 73 -55 43 -16 82
-29 87 -29 4 0 26 29 47 65 45 74 89 203 89 261 l0 39 -130 0 -130 0 0 -32z"/>
<path d="M460 278 c-35 -5 -66 -11 -69 -14 -10 -10 61 -136 101 -180 40 -43
85 -74 108 -74 6 0 10 49 10 140 l0 140 -42 -1 c-24 -1 -72 -6 -108 -11z"/>
<path d="M670 150 c0 -91 4 -140 10 -140 23 0 68 31 108 74 39 43 111 170 101
180 -5 6 -153 26 -190 26 l-29 0 0 -140z"/>
<path d="M257 226 c-33 -14 -61 -27 -63 -29 -11 -11 98 -92 172 -128 44 -21
83 -39 87 -39 4 0 -10 21 -30 48 -20 26 -49 75 -65 110 -17 34 -33 62 -36 62
-4 0 -33 -11 -65 -24z"/>
<path d="M923 188 c-17 -35 -46 -84 -66 -110 -20 -27 -34 -48 -30 -48 24 0
179 87 218 123 l48 43 -49 21 c-93 40 -88 41 -121 -29z"/>
</g>
</svg>
